<svg width="30" height="30" viewBox="0 0 30 30" fill="none" xmlns="http://www.w3.org/2000/svg">
    <path fill-rule="evenodd" clip-rule="evenodd" d="M3.21429 0C1.43893 0 0 1.43893 0 3.21429C0 4.98964 1.43893 6.42857 3.21429 6.42857C14.4396 6.42857 23.5714 15.5604 23.5714 26.7857C23.5714 28.5611 25.0104 30 26.7857 30C28.5611 30 30 28.5611 30 26.7857C30 12.0161 17.9839 0 3.21429 0ZM4.28571 21.4286C1.91893 21.4286 0 23.3475 0 25.7143C0 28.0811 1.91893 30 4.28571 30C6.6525 30 8.57143 28.0811 8.57143 25.7143C8.57143 23.3475 6.6525 21.4286 4.28571 21.4286ZM0 13.9286C0 12.1532 1.43893 10.7143 3.21429 10.7143C12.0761 10.7143 19.2857 17.9239 19.2857 26.7857C19.2857 28.5611 17.8468 30 16.0714 30C14.2961 30 12.8571 28.5611 12.8571 26.7857C12.8571 21.4693 8.53179 17.1429 3.21429 17.1429C1.43893 17.1429 0 15.7039 0 13.9286Z" fill="#4360DF"/>
</svg>